
        <svg xmlns="http://www.w3.org/2000/svg" xmlns:xlink="http://www.w3.org/1999/xlink" version="1.1" width="3279.0697674418607" height="1700.5023148030602" viewBox="0 -279.06976744186045 3279.0697674418607 1700.5023148030602">
			
			<g transform="scale(13.953488372093023) translate(10, 10)">
				<defs id="SvgjsDefs4739"/><g id="SvgjsG4740" featureKey="symbolFeature-0" transform="matrix(1.1796733539026987,0,0,1.1796733539026987,-11.976406892929685,-26.606170669352693)" fill="#fff"><g xmlns="http://www.w3.org/2000/svg"><path d="M57,19h-2V5.6l11.1,4.8L57,14.3V19z M57,8.7v3.4l4-1.7L57,8.7z"/></g><g xmlns="http://www.w3.org/2000/svg"><g><path d="M20.3,70.9l-0.7-1.9c0.8-0.3,1.8-0.6,3-0.9l0.5,1.9C22,70.4,21.1,70.7,20.3,70.9z"/></g><g><path d="M28.9,68.9l-0.3-2c1.2-0.2,2.5-0.4,3.8-0.6l2.2-0.4l0.3,2l-2.2,0.4C31.4,68.5,30.2,68.7,28.9,68.9z     M40.8,66.8l-0.4-2c2.2-0.4,4.1-0.9,5.8-1.3l0.5,1.9C45,66,43.1,66.4,40.8,66.8z M52.6,63.6l-0.7-1.9c2-0.8,3.8-1.7,5.1-2.7    l1.2,1.6C56.7,61.8,54.8,62.8,52.6,63.6z M62.5,55.9l-1.8-0.9c0.5-1.1,0.8-2.3,0.8-3.7c0-0.5,0-1.1-0.1-1.6l2-0.3    c0.1,0.7,0.1,1.3,0.1,1.9C63.5,53,63.1,54.6,62.5,55.9z M30.5,46.8l-0.1-2c1.7,0,3.6-0.2,5.8-0.5l0.3,2    C34.3,46.6,32.3,46.8,30.5,46.8z M24.2,45.7c-2.1-0.8-3.8-2.1-5.2-3.9l1.6-1.2c1.1,1.5,2.5,2.6,4.3,3.2L24.2,45.7z M42.6,45.1    l-0.4-2l0.5-0.1c1.9-0.4,3.7-0.8,5.4-1.1l0.3,2c-1.7,0.3-3.5,0.7-5.4,1.1L42.6,45.1z M59.2,45c-1.1-1-2.7-1.6-4.9-1.6l0.1-2    c2.7,0.1,4.7,0.8,6.2,2.2L59.2,45z M18.9,35.8l-2-0.2c0.2-2,1.3-3.9,3.3-5.7l1.3,1.5C20,32.8,19.1,34.3,18.9,35.8z M26.4,28.2    l-0.9-1.8c1.6-0.8,3.5-1.6,5.7-2.4l0.7,1.9C29.8,26.6,28,27.4,26.4,28.2z M37.5,24.1l-0.5-1.9c1.9-0.5,3.8-1,5.9-1.5l0.4,2    C41.3,23.1,39.3,23.6,37.5,24.1z"/></g><g><path d="M49.2,21.5l-0.3-2c1.9-0.3,3-0.5,3-0.5l0.3,2C52.1,21,51,21.1,49.2,21.5z"/></g></g><g xmlns="http://www.w3.org/2000/svg"><path d="M16,75c-2.8,0-5-2.2-5-5s2.2-5,5-5s5,2.2,5,5S18.8,75,16,75z M16,67c-1.7,0-3,1.3-3,3s1.3,3,3,3s3-1.3,3-3   S17.7,67,16,67z"/></g></g><g id="SvgjsG4741" featureKey="nameFeature-0" transform="matrix(0.6830600830029347,0,0,0.6830600830029347,83.6338795082857,21.415301216758497)" fill="#fff"><path d="M31.32 25.36 c0 2.76 -0.64 5.28 -1.88 7.56 c-1.28 2.28 -3.04 4.08 -5.28 5.4 c-2.28 1.32 -4.76 2 -7.56 2 c-2.04 0 -3.96 -0.4 -5.8 -1.16 c-1.8 -0.76 -3.36 -1.8 -4.64 -3.16 c-1.28 -1.28 -2.28 -2.84 -3.04 -4.68 c-0.72 -1.84 -1.12 -3.76 -1.12 -5.8 c0 -2.76 0.64 -5.28 1.92 -7.56 c1.24 -2.28 3 -4.12 5.28 -5.44 c2.24 -1.32 4.76 -1.96 7.52 -1.96 c2.04 0 3.96 0.36 5.8 1.12 c1.8 0.8 3.36 1.84 4.64 3.12 c1.28 1.36 2.32 2.92 3.04 4.72 c0.76 1.84 1.12 3.76 1.12 5.84 z M28.16 25.52 c0 -3.28 -1.2 -6.32 -3.2 -8.52 s-5 -3.6 -8.36 -3.6 c-2.16 0 -4.12 0.56 -5.88 1.6 c-1.76 1.12 -3.12 2.56 -4.08 4.36 c-0.96 1.84 -1.44 3.84 -1.44 6 c0 3.24 1.2 6.32 3.2 8.48 c2 2.2 5 3.6 8.32 3.6 c2.16 0 4.12 -0.56 5.88 -1.64 c1.8 -1.04 3.16 -2.52 4.12 -4.32 s1.44 -3.8 1.44 -5.96 z M56.519999999999996 30.04 c0 3.6 -1.56 6.84 -4.44 8.8 c-1.44 0.96 -3.08 1.44 -4.92 1.44 c-3.24 0 -5.8 -1.44 -7.64 -4.36 l0 13.88 l-2.92 0 l0 -29.68 l2.84 0 l0 4.32 c2.04 -3.12 4.6 -4.68 7.72 -4.68 c2.76 0 5.24 1.24 6.84 3.2 c1.56 1.92 2.52 4.48 2.52 7.08 z M46.6 37.76 c2.12 0 3.8 -0.76 5.08 -2.2 c1.24 -1.48 1.88 -3.28 1.88 -5.44 c0 -2.8 -1.08 -5.24 -3.24 -6.68 c-1.04 -0.72 -2.32 -1.08 -3.72 -1.08 c-4.04 -0.08 -7.24 3.68 -7.12 7.64 c0 2.08 0.64 3.92 2 5.44 c1.36 1.56 3.04 2.32 5.12 2.32 z M68.6 40.16 c-4.32 0 -5.64 -2.4 -5.64 -5.32 l0 -12.16 l-3.68 0 l0 -2.56 l3.68 0 l0 -5.72 l2.88 0 l0 5.72 l5.04 0 l0 2.56 l-5.04 0 l0 12.12 c0 1.84 1.08 2.8 3.24 2.8 c0.68 0 1.28 -0.08 1.8 -0.16 l0 2.4 c-0.64 0.2 -1.4 0.32 -2.28 0.32 z M75.72 14.559999999999999 c-0.4 -0.44 -0.64 -0.96 -0.64 -1.56 s0.24 -1.12 0.64 -1.56 c0.4 -0.4 0.96 -0.64 1.56 -0.64 s1.12 0.24 1.52 0.64 c0.44 0.44 0.64 0.96 0.64 1.56 s-0.2 1.12 -0.64 1.56 c-0.4 0.4 -0.92 0.64 -1.52 0.64 s-1.16 -0.24 -1.56 -0.64 z M75.8 40 l0 -19.88 l2.92 0 l0 19.88 l-2.92 0 z M95.6 13.719999999999999 l0 26.28 l-3.04 0 l0 -26.28 l-9.76 0 l0 -2.88 l22.56 0 l0 2.88 l-9.76 0 z M109.44 20.12 l2.84 0 l0 3.92 c0.96 -1.96 2.56 -3.28 4.08 -3.84 c0.76 -0.28 1.56 -0.4 2.36 -0.4 c0.44 0 0.76 0 0.96 0.08 l0 3.08 c-0.32 -0.08 -0.72 -0.08 -1.12 -0.08 c-4.72 0 -6.2 3.88 -6.2 7.4 l0 9.72 l-2.92 0 l0 -19.88 z M145.84 40 l-3.2 -7.44 l-15.88 0 l-3.2 7.44 l-3.12 0 l12.56 -29.16 l3.48 0 l12.6 29.16 l-3.24 0 z M141.48 29.759999999999998 l-6.8 -15.76 l-6.76 15.76 l13.56 0 z M154 29.96 c0 2.8 1.16 5.24 3.36 6.68 c1.12 0.76 2.4 1.12 3.84 1.12 c1.68 0 3.16 -0.56 4.08 -1.24 c0.44 -0.32 0.84 -0.72 1.24 -1.2 c0.72 -0.96 1.04 -1.6 1.32 -2.32 l2.68 0.88 c-0.44 1.56 -1.52 3.08 -3.04 4.32 c-1.52 1.28 -3.84 2.16 -6.32 2.16 c-5.68 0.08 -10.2 -4.36 -10.12 -10.24 c0 -1.96 0.48 -3.72 1.4 -5.32 s2.16 -2.84 3.72 -3.72 s3.24 -1.32 5.12 -1.32 c2.24 0 4.24 0.64 5.92 1.84 c1.72 1.28 2.8 2.76 3.2 4.52 l-2.64 0.88 c-0.44 -1.6 -2.48 -4.64 -6.56 -4.64 c-2.08 0 -3.8 0.72 -5.16 2.2 s-2.04 3.28 -2.04 5.4 z M178.39999999999998 30.04 l-0.12 0 l0 9.96 l-2.92 0 l0 -30.36 l2.92 0 l0 18.56 l9.44 -8.08 l4.12 0 l-10.48 8.92 l10.96 10.96 l-4.04 0 z"/></g>
			</g>
		</svg>
	